<svg width="242" height="156" viewBox="0 0 242 156" fill="none" xmlns="http://www.w3.org/2000/svg">
<g filter="url(#filter0_d)">
<path d="M81.5402 10.1343H55.6977C52.1316 10.1343 49.2407 12.9207 49.2407 16.358V41.2669C49.2407 44.7042 52.1316 47.4906 55.6977 47.4906H81.5402C85.1063 47.4906 87.9972 44.7042 87.9972 41.2669V16.358C87.9972 12.9207 85.1063 10.1343 81.5402 10.1343Z" fill="#56CCF2"/>
</g>
<path d="M78.316 27.5068H74.3874L77.4398 24.5443L76.1115 23.2459L71.7212 27.5068H69.837V25.6781L74.2272 21.4173L72.8895 20.128L69.837 23.0905V19.2777H67.9528V23.0905L64.9004 20.128L63.5626 21.4173L67.9528 25.6781V27.5068H66.0686L61.6784 23.2459L60.35 24.5443L63.4025 27.5068H59.4739V29.3354H63.4025L60.35 32.2979L61.6784 33.5963L66.0686 29.3354H67.9528V31.1641L63.5626 35.4249L64.9004 36.7142L67.9528 33.7517V37.5645H69.837V33.7517L72.8895 36.7142L74.2272 35.4249L69.837 31.1641V29.3354H71.7212L76.1115 33.5963L77.4398 32.2979L74.3874 29.3354H78.316V27.5068Z" fill="white"/>
<g filter="url(#filter1_d)">
<path d="M215.189 98.3112H189.346C185.78 98.3112 182.889 101.098 182.889 104.535V129.444C182.889 132.881 185.78 135.668 189.346 135.668H215.189C218.755 135.668 221.646 132.881 221.646 129.444V104.535C221.646 101.098 218.755 98.3112 215.189 98.3112Z" fill="#F2C94C"/>
</g>
<path d="M211.152 113.855C211.152 109.283 207.384 105.626 202.674 105.626C197.963 105.626 194.195 109.283 194.195 113.855C194.195 116.689 195.702 119.25 197.963 120.712V122.998C197.963 124.187 198.717 125.193 199.847 125.558V125.741C199.847 127.296 201.072 128.484 202.674 128.484C204.275 128.484 205.5 127.296 205.5 125.741V125.558C206.63 125.193 207.384 124.187 207.384 122.998V120.712C209.645 119.25 211.152 116.689 211.152 113.855ZM196.079 113.855C196.079 110.289 198.999 107.455 202.674 107.455C206.348 107.455 209.268 110.289 209.268 113.855C209.268 117.055 206.819 119.707 203.616 120.164V117.878L205.217 116.324C205.594 115.958 205.594 115.409 205.217 115.044C204.84 114.678 204.275 114.678 203.898 115.044L202.674 116.232L201.449 115.044C201.072 114.678 200.507 114.678 200.13 115.044C199.753 115.409 199.753 115.958 200.13 116.324L201.731 117.878V120.164C198.528 119.707 196.079 117.055 196.079 113.855ZM202.674 126.656C202.108 126.656 201.731 126.29 201.731 125.741H203.616C203.616 126.29 203.239 126.656 202.674 126.656ZM205.5 122.998C205.5 123.547 205.123 123.913 204.558 123.913H200.789C200.224 123.913 199.847 123.547 199.847 122.998V121.627C200.695 121.901 201.637 122.084 202.674 122.084C203.71 122.084 204.652 121.901 205.5 121.627V122.998Z" fill="white"/>
<g filter="url(#filter2_d)">
<path d="M42.7836 98.3112H16.9411C13.375 98.3112 10.4841 101.098 10.4841 104.535V129.444C10.4841 132.881 13.375 135.668 16.9411 135.668H42.7836C46.3497 135.668 49.2406 132.881 49.2406 129.444V104.535C49.2406 101.098 46.3497 98.3112 42.7836 98.3112Z" fill="#F58A8A"/>
</g>
<path d="M35.9209 113.855H34.9788V112.026C34.9788 109.503 32.8685 107.454 30.2683 107.454C27.6681 107.454 25.5578 109.503 25.5578 112.026V113.855H24.6157C23.5793 113.855 22.7314 114.678 22.7314 115.684V124.827C22.7314 125.833 23.5793 126.656 24.6157 126.656H35.9209C36.9572 126.656 37.8051 125.833 37.8051 124.827V115.684C37.8051 114.678 36.9572 113.855 35.9209 113.855ZM30.2683 122.084C29.232 122.084 28.3841 121.261 28.3841 120.255C28.3841 119.249 29.232 118.427 30.2683 118.427C31.3046 118.427 32.1525 119.249 32.1525 120.255C32.1525 121.261 31.3046 122.084 30.2683 122.084ZM33.1888 113.855H27.3478V112.026C27.3478 110.463 28.6573 109.192 30.2683 109.192C31.8793 109.192 33.1888 110.463 33.1888 112.026V113.855Z" fill="white"/>
<g filter="url(#filter3_d)">
<path d="M172.794 10.1343H146.952C143.386 10.1343 140.495 12.9207 140.495 16.358V41.2669C140.495 44.7042 143.386 47.4906 146.952 47.4906H172.794C176.36 47.4906 179.251 44.7042 179.251 41.2669V16.358C179.251 12.9207 176.36 10.1343 172.794 10.1343Z" fill="#6FCF97"/>
</g>
<path d="M165.282 23.7548H149.896V33.0873H165.282V23.7548Z" fill="white"/>
<path d="M169.429 25.6118L166.033 26.9971V29.8842L169.429 31.2695H170.661V25.6118H169.429Z" fill="white"/>
<defs>
<filter id="filter0_d" x="39.2407" y="0.134277" width="68.7565" height="67.3564" filterUnits="userSpaceOnUse" color-interpolation-filters="sRGB">
<feFlood flood-opacity="0" result="BackgroundImageFix"/>
<feColorMatrix in="SourceAlpha" type="matrix" values="0 0 0 0 0 0 0 0 0 0 0 0 0 0 0 0 0 0 127 0"/>
<feOffset dx="5" dy="5"/>
<feGaussianBlur stdDeviation="7.5"/>
<feColorMatrix type="matrix" values="0 0 0 0 0 0 0 0 0 0 0 0 0 0 0 0 0 0 0.15 0"/>
<feBlend mode="normal" in2="BackgroundImageFix" result="effect1_dropShadow"/>
<feBlend mode="normal" in="SourceGraphic" in2="effect1_dropShadow" result="shape"/>
</filter>
<filter id="filter1_d" x="172.889" y="88.3112" width="68.7565" height="67.3564" filterUnits="userSpaceOnUse" color-interpolation-filters="sRGB">
<feFlood flood-opacity="0" result="BackgroundImageFix"/>
<feColorMatrix in="SourceAlpha" type="matrix" values="0 0 0 0 0 0 0 0 0 0 0 0 0 0 0 0 0 0 127 0"/>
<feOffset dx="5" dy="5"/>
<feGaussianBlur stdDeviation="7.5"/>
<feColorMatrix type="matrix" values="0 0 0 0 0 0 0 0 0 0 0 0 0 0 0 0 0 0 0.15 0"/>
<feBlend mode="normal" in2="BackgroundImageFix" result="effect1_dropShadow"/>
<feBlend mode="normal" in="SourceGraphic" in2="effect1_dropShadow" result="shape"/>
</filter>
<filter id="filter2_d" x="0.484131" y="88.3112" width="68.7565" height="67.3563" filterUnits="userSpaceOnUse" color-interpolation-filters="sRGB">
<feFlood flood-opacity="0" result="BackgroundImageFix"/>
<feColorMatrix in="SourceAlpha" type="matrix" values="0 0 0 0 0 0 0 0 0 0 0 0 0 0 0 0 0 0 127 0"/>
<feOffset dx="5" dy="5"/>
<feGaussianBlur stdDeviation="7.5"/>
<feColorMatrix type="matrix" values="0 0 0 0 0 0 0 0 0 0 0 0 0 0 0 0 0 0 0.15 0"/>
<feBlend mode="normal" in2="BackgroundImageFix" result="effect1_dropShadow"/>
<feBlend mode="normal" in="SourceGraphic" in2="effect1_dropShadow" result="shape"/>
</filter>
<filter id="filter3_d" x="130.495" y="0.134277" width="68.7564" height="67.3564" filterUnits="userSpaceOnUse" color-interpolation-filters="sRGB">
<feFlood flood-opacity="0" result="BackgroundImageFix"/>
<feColorMatrix in="SourceAlpha" type="matrix" values="0 0 0 0 0 0 0 0 0 0 0 0 0 0 0 0 0 0 127 0"/>
<feOffset dx="5" dy="5"/>
<feGaussianBlur stdDeviation="7.5"/>
<feColorMatrix type="matrix" values="0 0 0 0 0 0 0 0 0 0 0 0 0 0 0 0 0 0 0.15 0"/>
<feBlend mode="normal" in2="BackgroundImageFix" result="effect1_dropShadow"/>
<feBlend mode="normal" in="SourceGraphic" in2="effect1_dropShadow" result="shape"/>
</filter>
</defs>
</svg>
